<svg xmlns="http://www.w3.org/2000/svg" version="1.1" xmlns:xlink="http://www.w3.org/1999/xlink" xmlns:svgjs="http://svgjs.dev/svgjs" width="1500" height="871" viewBox="0 0 1500 871"><g transform="matrix(1,0,0,1,-0.9090909090909918,-1.550759328795266)"><svg viewBox="0 0 396 230" data-background-color="#ffffff" preserveAspectRatio="xMidYMid meet" height="871" width="1500" xmlns="http://www.w3.org/2000/svg" xmlns:xlink="http://www.w3.org/1999/xlink"><g id="tight-bounds" transform="matrix(1,0,0,1,0.2400000000000091,0.40950016719048676)"><svg viewBox="0 0 395.52 229.1809996656189" height="229.1809996656189" width="395.52"><g><svg viewBox="0 0 395.52 229.1809996656189" height="229.1809996656189" width="395.52"><g><svg viewBox="0 0 395.52 229.1809996656189" height="229.1809996656189" width="395.52"><g id="textblocktransform"><svg viewBox="0 0 395.52 229.1809996656189" height="229.1809996656189" width="395.52" id="textblock"><g><svg viewBox="0 0 395.52 229.1809996656189" height="229.1809996656189" width="395.52"><g transform="matrix(1,0,0,1,0,0)"><svg width="395.52" viewBox="0.9299999999999998 -34.67000000000001 146.3172212649919 77.13" height="229.1809996656189" data-palette-color="#b2d0c4"><svg></svg><svg></svg><g class="wordmark-text-0" data-fill-palette-color="primary" id="text-0"><path d="M21.88 4.64l-2.79-4.69c-1.467 0.133-2.923 0.19-4.37 0.17-1.447-0.013-2.837-0.143-4.17-0.39-1.34-0.24-2.57-0.63-3.69-1.17-1.12-0.54-2.103-1.247-2.95-2.12-0.847-0.88-1.507-1.98-1.98-3.3-0.473-1.32-0.71-2.907-0.71-4.76v0c0-1.14 0.14-2.427 0.42-3.86 0.273-1.433 0.68-2.907 1.22-4.42 0.533-1.513 1.19-2.993 1.97-4.44 0.787-1.447 1.69-2.733 2.71-3.86 1.027-1.12 2.15-2.023 3.37-2.71 1.22-0.68 2.547-1.02 3.98-1.02v0c0.98 0 1.933 0.373 2.86 1.12 0.927 0.747 1.79 1.7 2.59 2.86 0.793 1.153 1.517 2.43 2.17 3.83 0.653 1.4 1.213 2.783 1.68 4.15 0.473 1.367 0.84 2.603 1.1 3.71 0.26 1.107 0.39 1.937 0.39 2.49v0c0 1.207-0.087 2.33-0.26 3.37-0.18 1.04-0.467 2.04-0.86 3-0.393 0.96-0.89 1.89-1.49 2.79-0.6 0.893-1.307 1.797-2.12 2.71v0c0.127 0.193 0.33 0.557 0.61 1.09 0.273 0.54 0.557 1.11 0.85 1.71 0.293 0.607 0.57 1.17 0.83 1.69 0.26 0.52 0.44 0.893 0.54 1.12v0c0.033 0.067 0.067 0.22 0.1 0.46 0.033 0.247 0.05 0.403 0.05 0.47v0zM3.13-11.62v0c0 1.467 0.25 2.81 0.75 4.03 0.507 1.22 1.207 2.253 2.1 3.1 0.893 0.847 1.943 1.507 3.15 1.98 1.207 0.467 2.51 0.7 3.91 0.7v0c0.227 0 0.567 0 1.02 0 0.46 0 0.923-0.03 1.39-0.09 0.473-0.067 0.897-0.207 1.27-0.42 0.38-0.213 0.57-0.53 0.57-0.95v0c0-0.947-0.237-1.793-0.71-2.54-0.473-0.747-0.997-1.47-1.57-2.17-0.567-0.7-1.087-1.383-1.56-2.05-0.473-0.673-0.71-1.4-0.71-2.18v0h1.66l5.62 7.47c0.68-0.487 1.257-1.08 1.73-1.78 0.473-0.7 0.863-1.447 1.17-2.24 0.313-0.8 0.533-1.623 0.66-2.47 0.133-0.847 0.2-1.66 0.2-2.44v0c0-1.367-0.17-2.71-0.51-4.03-0.347-1.32-0.797-2.567-1.35-3.74-0.553-1.167-1.163-2.247-1.83-3.24-0.667-0.993-1.317-1.873-1.95-2.64-0.633-0.767-1.203-1.377-1.71-1.83-0.507-0.453-0.873-0.747-1.1-0.88v0c-1.987 0.487-3.737 1.357-5.25 2.61-1.513 1.253-2.79 2.72-3.83 4.4-1.04 1.673-1.82 3.503-2.34 5.49-0.52 1.987-0.78 3.957-0.78 5.91zM27.2-18.95v0c0-0.16 0.103-0.32 0.31-0.48 0.213-0.167 0.477-0.297 0.79-0.39 0.307-0.1 0.607-0.167 0.9-0.2 0.293-0.033 0.503 0.017 0.63 0.15v0c0.2 4.033 0.583 7.247 1.15 9.64 0.573 2.393 1.223 4.143 1.95 5.25 0.733 1.107 1.523 1.667 2.37 1.68 0.847 0.02 1.677-0.337 2.49-1.07 0.813-0.733 1.57-1.733 2.27-3 0.7-1.273 1.27-2.64 1.71-4.1 0.44-1.467 0.71-2.933 0.81-4.4 0.093-1.467-0.037-2.77-0.39-3.91v0l2.93-0.34c0.033 0.493 0.123 1.3 0.27 2.42 0.147 1.12 0.307 2.39 0.48 3.81 0.18 1.413 0.383 2.887 0.61 4.42 0.233 1.527 0.43 2.95 0.59 4.27 0.16 1.32 0.307 2.443 0.44 3.37 0.133 0.927 0.2 1.503 0.2 1.73v0h-2.1l-2.3-8.44c-0.453 1.133-1.007 2.223-1.66 3.27-0.653 1.04-1.36 1.95-2.12 2.73-0.767 0.78-1.573 1.39-2.42 1.83-0.847 0.44-1.687 0.62-2.52 0.54-0.827-0.08-1.63-0.463-2.41-1.15-0.78-0.68-1.507-1.763-2.18-3.25-0.667-1.48-1.243-3.39-1.73-5.73-0.487-2.347-0.843-5.23-1.07-8.65zM49.9-11.47v0c0-0.98 0.213-2.063 0.64-3.25 0.42-1.187 0.997-2.293 1.73-3.32 0.733-1.027 1.563-1.89 2.49-2.59 0.927-0.7 1.897-1.05 2.91-1.05v0c0.553 0 1.097 0.113 1.63 0.34 0.54 0.227 1.06 0.53 1.56 0.91 0.507 0.373 0.963 0.793 1.37 1.26 0.407 0.473 0.723 0.97 0.95 1.49 0.233 0.527 0.357 1.033 0.37 1.52 0.013 0.487-0.127 0.91-0.42 1.27v0l-10.3 1.9c-0.127 0.033-0.24 0.19-0.34 0.47-0.1 0.273-0.18 0.623-0.24 1.05-0.067 0.42-0.123 0.883-0.17 1.39-0.053 0.5-0.097 0.987-0.13 1.46-0.033 0.473-0.05 0.897-0.05 1.27 0 0.373 0 0.66 0 0.86v0c0 0.907 0.22 1.647 0.66 2.22 0.44 0.567 1.003 0.997 1.69 1.29 0.68 0.293 1.453 0.49 2.32 0.59 0.86 0.093 1.713 0.14 2.56 0.14 0.847 0 1.643-0.03 2.39-0.09 0.753-0.067 1.373-0.1 1.86-0.1v0c0 0.127-0.05 0.273-0.15 0.44-0.093 0.16-0.207 0.313-0.34 0.46-0.127 0.147-0.257 0.277-0.39 0.39-0.133 0.113-0.213 0.187-0.24 0.22v0c-0.26 0.067-0.66 0.157-1.2 0.27-0.54 0.113-1.11 0.22-1.71 0.32-0.6 0.093-1.16 0.173-1.68 0.24-0.527 0.067-0.887 0.1-1.08 0.1v0c-1.007 0.193-1.883 0.177-2.63-0.05-0.753-0.227-1.39-0.617-1.91-1.17-0.52-0.553-0.943-1.23-1.27-2.03-0.327-0.793-0.57-1.647-0.73-2.56-0.167-0.913-0.257-1.857-0.27-2.83-0.013-0.98 0.027-1.923 0.12-2.83zM56.98-19.82v0c-0.293 0-0.677 0.153-1.15 0.46-0.467 0.307-0.903 0.697-1.31 1.17-0.407 0.473-0.75 0.98-1.03 1.52-0.273 0.533-0.363 0.997-0.27 1.39v0c0.847 0.093 1.727 0.077 2.64-0.05 0.913-0.133 1.743-0.337 2.49-0.61 0.747-0.28 1.367-0.607 1.86-0.98 0.487-0.373 0.72-0.757 0.7-1.15-0.013-0.387-0.32-0.737-0.92-1.05-0.607-0.307-1.61-0.54-3.01-0.7zM66.36-11.47v0c0-0.98 0.21-2.063 0.63-3.25 0.427-1.187 1.007-2.293 1.74-3.32 0.727-1.027 1.557-1.89 2.49-2.59 0.927-0.7 1.893-1.05 2.9-1.05v0c0.553 0 1.1 0.113 1.64 0.34 0.533 0.227 1.053 0.53 1.56 0.91 0.507 0.373 0.963 0.793 1.37 1.26 0.407 0.473 0.723 0.97 0.95 1.49 0.227 0.527 0.347 1.033 0.36 1.52 0.02 0.487-0.117 0.91-0.41 1.27v0l-10.3 1.9c-0.133 0.033-0.247 0.19-0.34 0.47-0.1 0.273-0.183 0.623-0.25 1.05-0.067 0.42-0.123 0.883-0.17 1.39-0.047 0.5-0.087 0.987-0.12 1.46-0.033 0.473-0.05 0.897-0.05 1.27 0 0.373 0 0.66 0 0.86v0c0 0.907 0.22 1.647 0.66 2.22 0.44 0.567 1 0.997 1.68 1.29 0.687 0.293 1.46 0.49 2.32 0.59 0.867 0.093 1.723 0.14 2.57 0.14 0.847 0 1.643-0.03 2.39-0.09 0.747-0.067 1.363-0.1 1.85-0.1v0c0 0.127-0.047 0.273-0.14 0.44-0.1 0.16-0.213 0.313-0.34 0.46-0.133 0.147-0.263 0.277-0.39 0.39-0.133 0.113-0.217 0.187-0.25 0.22v0c-0.26 0.067-0.66 0.157-1.2 0.27-0.533 0.113-1.1 0.22-1.7 0.32-0.607 0.093-1.17 0.173-1.69 0.24-0.52 0.067-0.877 0.1-1.07 0.1v0c-1.013 0.193-1.893 0.177-2.64-0.05-0.747-0.227-1.38-0.617-1.9-1.17-0.527-0.553-0.95-1.23-1.27-2.03-0.327-0.793-0.573-1.647-0.74-2.56-0.16-0.913-0.247-1.857-0.26-2.83-0.02-0.98 0.02-1.923 0.12-2.83zM73.44-19.82v0c-0.293 0-0.677 0.153-1.15 0.46-0.473 0.307-0.913 0.697-1.32 1.17-0.407 0.473-0.747 0.98-1.02 1.52-0.28 0.533-0.37 0.997-0.27 1.39v0c0.847 0.093 1.723 0.077 2.63-0.05 0.913-0.133 1.743-0.337 2.49-0.61 0.753-0.28 1.373-0.607 1.86-0.98 0.487-0.373 0.723-0.757 0.71-1.15-0.02-0.387-0.33-0.737-0.93-1.05-0.6-0.307-1.6-0.54-3-0.7zM83.2-0.24v0c-0.06-0.527-0.117-1.283-0.17-2.27-0.047-0.993-0.093-2.117-0.14-3.37-0.053-1.253-0.097-2.563-0.13-3.93-0.033-1.373-0.063-2.677-0.09-3.91-0.033-1.24-0.077-2.357-0.13-3.35-0.047-0.987-0.12-1.743-0.22-2.27v0c0-0.027-0.007-0.107-0.02-0.24-0.013-0.133-0.03-0.28-0.05-0.44-0.013-0.16-0.02-0.297-0.02-0.41 0-0.12 0-0.21 0-0.27v0c0.487-0.393 0.9-0.523 1.24-0.39 0.34 0.127 0.627 0.41 0.86 0.85 0.227 0.44 0.387 0.987 0.48 1.64 0.1 0.647 0.173 1.297 0.22 1.95 0.053 0.653 0.08 1.247 0.08 1.78 0 0.54 0 0.923 0 1.15v0c0.067-0.553 0.163-1.203 0.29-1.95 0.133-0.753 0.33-1.52 0.59-2.3 0.26-0.78 0.577-1.553 0.95-2.32 0.373-0.767 0.837-1.44 1.39-2.02 0.553-0.587 1.18-1.043 1.88-1.37 0.7-0.327 1.507-0.457 2.42-0.39v0c1.433 0.067 2.613 0.457 3.54 1.17 0.927 0.713 1.657 1.673 2.19 2.88 0.54 1.207 0.933 2.59 1.18 4.15 0.24 1.56 0.4 3.22 0.48 4.98 0.087 1.76 0.113 3.543 0.08 5.35-0.033 1.807-0.05 3.54-0.05 5.2v0c-0.293 0.067-0.587 0.173-0.88 0.32-0.293 0.147-0.537 0.21-0.73 0.19-0.2-0.013-0.34-0.16-0.42-0.44-0.08-0.273-0.053-0.817 0.08-1.63v0c0.027-0.587 0.083-1.49 0.17-2.71 0.08-1.227 0.11-2.587 0.09-4.08-0.013-1.5-0.1-3.047-0.26-4.64-0.167-1.593-0.47-3.05-0.91-4.37-0.44-1.32-1.067-2.393-1.88-3.22-0.813-0.833-1.87-1.25-3.17-1.25v0c-1.333 0.553-2.45 1.597-3.35 3.13-0.893 1.527-1.607 3.317-2.14 5.37-0.54 2.047-0.933 4.267-1.18 6.66-0.24 2.393-0.377 4.73-0.41 7.01v0c-0.067-0.033-0.19-0.05-0.37-0.05-0.18 0-0.373-0.007-0.58-0.02-0.213-0.02-0.41-0.047-0.59-0.08-0.18-0.033-0.287-0.063-0.32-0.09zM105.32 0.1l-0.73-19.05c0.393 0 0.727-0.013 1-0.04 0.28-0.033 0.517 0.127 0.71 0.48v0c0.1 1.467 0.213 2.957 0.34 4.47 0.133 1.513 0.263 3.037 0.39 4.57 0.133 1.527 0.223 3.063 0.27 4.61 0.047 1.547 0.053 3.053 0.02 4.52v0c0 0.193-0.047 0.313-0.14 0.36-0.1 0.053-0.24 0.07-0.42 0.05-0.18-0.013-0.39-0.03-0.63-0.05-0.247-0.013-0.517 0.013-0.81 0.08zM101.76-27.69v0c0-0.227 0.017-0.477 0.05-0.75 0.033-0.28 0.107-0.533 0.22-0.76 0.113-0.227 0.26-0.423 0.44-0.59 0.173-0.16 0.393-0.24 0.66-0.24v0c0.387 0 0.777 0.017 1.17 0.05 0.387 0.033 0.76 0.107 1.12 0.22 0.36 0.113 0.653 0.293 0.88 0.54 0.227 0.24 0.34 0.59 0.34 1.05v0c0 0.78-0.293 1.47-0.88 2.07-0.587 0.6-1.303 0.9-2.15 0.9v0c-0.647 0-1.117-0.25-1.41-0.75-0.293-0.507-0.44-1.087-0.44-1.74zM104.59-27.44v0c-0.1 0-0.15 0.08-0.15 0.24 0 0.167 0.05 0.25 0.15 0.25v0c0.133 0 0.2-0.083 0.2-0.25 0-0.16-0.067-0.24-0.2-0.24zM109.67-11.47v0c0-0.98 0.21-2.063 0.63-3.25 0.427-1.187 1.007-2.293 1.74-3.32 0.727-1.027 1.557-1.89 2.49-2.59 0.927-0.7 1.893-1.05 2.9-1.05v0c0.553 0 1.1 0.113 1.64 0.34 0.533 0.227 1.053 0.53 1.56 0.91 0.507 0.373 0.963 0.793 1.37 1.26 0.407 0.473 0.723 0.97 0.95 1.49 0.227 0.527 0.35 1.033 0.37 1.52 0.013 0.487-0.127 0.91-0.42 1.27v0l-10.3 1.9c-0.133 0.033-0.247 0.19-0.34 0.47-0.1 0.273-0.183 0.623-0.25 1.05-0.067 0.42-0.123 0.883-0.17 1.39-0.047 0.5-0.087 0.987-0.12 1.46-0.033 0.473-0.05 0.897-0.05 1.27 0 0.373 0 0.66 0 0.86v0c0 0.907 0.22 1.647 0.66 2.22 0.44 0.567 1 0.997 1.68 1.29 0.687 0.293 1.46 0.49 2.32 0.59 0.867 0.093 1.723 0.14 2.57 0.14 0.847 0 1.643-0.03 2.39-0.09 0.747-0.067 1.363-0.1 1.85-0.1v0c0 0.127-0.047 0.273-0.14 0.44-0.1 0.16-0.213 0.313-0.34 0.46-0.133 0.147-0.263 0.277-0.39 0.39-0.133 0.113-0.217 0.187-0.25 0.22v0c-0.26 0.067-0.657 0.157-1.19 0.27-0.54 0.113-1.11 0.22-1.71 0.32-0.607 0.093-1.17 0.173-1.69 0.24-0.52 0.067-0.877 0.1-1.07 0.1v0c-1.013 0.193-1.893 0.177-2.64-0.05-0.747-0.227-1.38-0.617-1.9-1.17-0.52-0.553-0.943-1.23-1.27-2.03-0.327-0.793-0.573-1.647-0.74-2.56-0.16-0.913-0.247-1.857-0.26-2.83-0.02-0.98 0.02-1.923 0.12-2.83zM116.75-19.82v0c-0.293 0-0.677 0.153-1.15 0.46-0.473 0.307-0.913 0.697-1.32 1.17-0.407 0.473-0.747 0.98-1.02 1.52-0.28 0.533-0.37 0.997-0.27 1.39v0c0.847 0.093 1.727 0.077 2.64-0.05 0.907-0.133 1.737-0.337 2.49-0.61 0.747-0.28 1.363-0.607 1.85-0.98 0.487-0.373 0.723-0.757 0.71-1.15-0.02-0.387-0.33-0.737-0.93-1.05-0.6-0.307-1.6-0.54-3-0.7zM125.54-33.74v0c0-0.16 0.13-0.357 0.39-0.59 0.26-0.227 0.453-0.34 0.58-0.34v0c0.813 0.52 1.337 1.213 1.57 2.08 0.227 0.86 0.34 1.747 0.34 2.66v0c0 0.193 0.007 0.43 0.02 0.71 0.02 0.273 0.013 0.55-0.02 0.83-0.033 0.273-0.123 0.523-0.27 0.75-0.147 0.233-0.383 0.397-0.71 0.49v0c-0.26-0.093-0.503-0.45-0.73-1.07-0.227-0.62-0.43-1.303-0.61-2.05-0.18-0.753-0.32-1.47-0.42-2.15-0.093-0.687-0.14-1.127-0.14-1.32zM132.81-3.96v0c0.587 0 1.133 0.117 1.64 0.35 0.507 0.227 1.003 0.477 1.49 0.75 0.487 0.28 0.983 0.527 1.49 0.74 0.5 0.207 1.043 0.31 1.63 0.31v0c0.687 0 1.397-0.12 2.13-0.36 0.733-0.247 1.407-0.59 2.02-1.03 0.62-0.44 1.127-0.977 1.52-1.61 0.387-0.633 0.58-1.323 0.58-2.07v0c0.033-0.233 0.043-0.51 0.03-0.83-0.02-0.327-0.127-0.663-0.32-1.01-0.193-0.34-0.52-0.663-0.98-0.97-0.453-0.313-1.11-0.55-1.97-0.71-0.867-0.16-1.95-0.25-3.25-0.27-1.3-0.013-2.913 0.11-4.84 0.37v0c-0.487 0-0.957-0.14-1.41-0.42-0.46-0.273-0.867-0.613-1.22-1.02-0.36-0.407-0.653-0.847-0.88-1.32-0.227-0.473-0.34-0.92-0.34-1.34v0c0-1.273 0.267-2.307 0.8-3.1 0.54-0.8 1.233-1.437 2.08-1.91 0.847-0.473 1.79-0.807 2.83-1 1.04-0.193 2.097-0.29 3.17-0.29v0c0.493 0 1.057 0.023 1.69 0.07 0.633 0.047 1.22 0.177 1.76 0.39 0.533 0.213 0.987 0.547 1.36 1 0.373 0.46 0.56 1.097 0.56 1.91v0c-0.06 0.553-0.147 0.887-0.26 1-0.113 0.113-0.277 0.08-0.49-0.1-0.213-0.18-0.467-0.433-0.76-0.76-0.293-0.327-0.643-0.643-1.05-0.95-0.407-0.307-0.893-0.543-1.46-0.71-0.573-0.16-1.217-0.16-1.93 0v0c-0.753 0-1.503 0.073-2.25 0.22-0.747 0.147-1.42 0.4-2.02 0.76-0.607 0.36-1.097 0.847-1.47 1.46-0.373 0.62-0.56 1.403-0.56 2.35v0c0 0.487 0.22 0.82 0.66 1 0.44 0.18 1.027 0.27 1.76 0.27 0.727 0 1.557-0.027 2.49-0.08 0.927-0.047 1.877-0.07 2.85-0.07 0.98 0 1.923 0.073 2.83 0.22 0.913 0.147 1.72 0.44 2.42 0.88 0.7 0.44 1.247 1.067 1.64 1.88 0.387 0.813 0.533 1.87 0.44 3.17v0c0 0.947-0.27 1.843-0.81 2.69-0.533 0.847-1.217 1.587-2.05 2.22-0.827 0.633-1.747 1.13-2.76 1.49-1.007 0.36-1.983 0.49-2.93 0.39v0c-0.387-0.033-0.917-0.14-1.59-0.32-0.667-0.18-1.317-0.43-1.95-0.75-0.633-0.327-1.177-0.727-1.63-1.2-0.46-0.473-0.69-1.037-0.69-1.69z" fill="#b2d0c4" fill-rule="nonzero" stroke="none" stroke-width="1" stroke-linecap="butt" stroke-linejoin="miter" stroke-miterlimit="10" stroke-dasharray="" stroke-dashoffset="0" font-family="none" font-weight="none" font-size="none" text-anchor="none" style="mix-blend-mode: normal" data-fill-palette-color="primary" opacity="1"></path><path d="M3.71 40.45l-1.85-22.51c-0.067-0.06-0.15-0.173-0.25-0.34-0.1-0.16-0.197-0.347-0.29-0.56-0.1-0.213-0.19-0.407-0.27-0.58-0.08-0.18-0.12-0.32-0.12-0.42v0c0-0.293 0.13-0.52 0.39-0.68 0.26-0.167 0.553-0.267 0.88-0.3 0.327-0.027 0.643-0.04 0.95-0.04 0.307 0 0.493 0 0.56 0v0c0.1 0 0.24 0.007 0.42 0.02 0.173 0.013 0.367 0.03 0.58 0.05 0.213 0.013 0.4 0.03 0.56 0.05 0.167 0.013 0.283 0.02 0.35 0.02v0c1.073 0.393 2.3 0.85 3.68 1.37 1.387 0.52 2.81 1.123 4.27 1.81 1.467 0.68 2.9 1.45 4.3 2.31 1.4 0.867 2.653 1.843 3.76 2.93 1.107 1.093 2.003 2.29 2.69 3.59 0.68 1.307 1.02 2.757 1.02 4.35v0c0 1.367-0.26 2.597-0.78 3.69-0.52 1.087-1.21 2.03-2.07 2.83-0.867 0.793-1.87 1.477-3.01 2.05-1.14 0.567-2.303 1.023-3.49 1.37-1.187 0.34-2.383 0.59-3.59 0.75-1.2 0.167-2.323 0.25-3.37 0.25v0c-0.227 0-0.617-0.01-1.17-0.03-0.553-0.013-1.123-0.037-1.71-0.07-0.587-0.033-1.113-0.057-1.58-0.07-0.473-0.02-0.727-0.03-0.76-0.03v0zM4.64 17.7v0c0 0.067 0 0.197 0 0.39 0 0.193 0.007 0.413 0.02 0.66 0.02 0.247 0.03 0.467 0.03 0.66 0 0.193 0 0.34 0 0.44v0c0.033 0.487 0.073 1.267 0.12 2.34 0.047 1.073 0.097 2.293 0.15 3.66 0.047 1.373 0.11 2.8 0.19 4.28 0.08 1.48 0.153 2.897 0.22 4.25 0.067 1.347 0.123 2.567 0.17 3.66 0.053 1.087 0.08 1.89 0.08 2.41v0c0.193 0 0.51 0.01 0.95 0.03 0.44 0.013 0.903 0.03 1.39 0.05 0.487 0.013 0.95 0.03 1.39 0.05 0.44 0.013 0.757 0.02 0.95 0.02v0c1.5 0 2.983-0.187 4.45-0.56 1.46-0.373 2.77-0.943 3.93-1.71 1.153-0.767 2.097-1.76 2.83-2.98 0.733-1.22 1.1-2.693 1.1-4.42v0c0-1.267-0.293-2.477-0.88-3.63-0.587-1.16-1.36-2.227-2.32-3.2-0.96-0.98-2.06-1.86-3.3-2.64-1.233-0.78-2.51-1.457-3.83-2.03-1.32-0.567-2.637-0.997-3.95-1.29-1.32-0.293-2.55-0.44-3.69-0.44zM27.54 30.84v0c0-0.98 0.21-2.063 0.63-3.25 0.427-1.187 1.007-2.293 1.74-3.32 0.733-1.027 1.563-1.89 2.49-2.59 0.927-0.7 1.893-1.05 2.9-1.05v0c0.553 0 1.1 0.113 1.64 0.34 0.533 0.227 1.053 0.53 1.56 0.91 0.507 0.373 0.963 0.793 1.37 1.26 0.407 0.473 0.723 0.97 0.95 1.49 0.227 0.527 0.35 1.033 0.37 1.52 0.013 0.487-0.127 0.91-0.42 1.27v0l-10.3 1.9c-0.133 0.033-0.247 0.19-0.34 0.47-0.1 0.273-0.183 0.623-0.25 1.05-0.06 0.42-0.117 0.883-0.17 1.39-0.047 0.5-0.087 0.987-0.12 1.46-0.033 0.473-0.05 0.897-0.05 1.27 0 0.373 0 0.66 0 0.86v0c0 0.907 0.22 1.647 0.66 2.22 0.44 0.567 1 0.997 1.68 1.29 0.687 0.293 1.46 0.49 2.32 0.59 0.867 0.093 1.723 0.14 2.57 0.14 0.847 0 1.643-0.03 2.39-0.09 0.747-0.067 1.367-0.1 1.86-0.1v0c0 0.127-0.05 0.273-0.15 0.44-0.1 0.16-0.213 0.313-0.34 0.46-0.133 0.147-0.263 0.277-0.39 0.39-0.133 0.113-0.217 0.187-0.25 0.22v0c-0.26 0.067-0.657 0.157-1.19 0.27-0.54 0.113-1.11 0.22-1.71 0.32-0.607 0.093-1.17 0.173-1.69 0.24-0.52 0.067-0.877 0.1-1.07 0.1v0c-1.013 0.193-1.893 0.177-2.64-0.05-0.747-0.227-1.38-0.617-1.9-1.17-0.52-0.553-0.943-1.23-1.27-2.03-0.327-0.793-0.57-1.647-0.73-2.56-0.167-0.913-0.257-1.857-0.27-2.83-0.02-0.98 0.02-1.923 0.12-2.83zM34.62 22.49v0c-0.293 0-0.677 0.153-1.15 0.46-0.473 0.307-0.913 0.697-1.32 1.17-0.407 0.473-0.747 0.98-1.02 1.52-0.28 0.533-0.37 0.997-0.27 1.39v0c0.847 0.093 1.727 0.077 2.64-0.05 0.907-0.133 1.737-0.337 2.49-0.61 0.747-0.28 1.363-0.607 1.85-0.98 0.487-0.373 0.723-0.757 0.71-1.15-0.013-0.387-0.323-0.737-0.93-1.05-0.6-0.307-1.6-0.54-3-0.7zM43.65 33.96v0c0-1.207 0.197-2.54 0.59-4 0.387-1.467 0.957-2.827 1.71-4.08 0.747-1.253 1.673-2.303 2.78-3.15 1.107-0.847 2.393-1.27 3.86-1.27v0c0.747-0.1 1.347-0.027 1.8 0.22 0.46 0.247 0.81 0.63 1.05 1.15 0.247 0.52 0.41 1.113 0.49 1.78 0.08 0.667 0.13 1.35 0.15 2.05 0.013 0.7 0.013 1.35 0 1.95-0.02 0.607 0.003 1.103 0.07 1.49v0h-1.22c-0.033-0.193-0.09-0.657-0.17-1.39-0.08-0.733-0.217-1.49-0.41-2.27-0.2-0.78-0.47-1.48-0.81-2.1-0.34-0.62-0.82-0.93-1.44-0.93v0c-0.913 0-1.767 0.36-2.56 1.08-0.8 0.713-1.493 1.577-2.08 2.59-0.587 1.007-1.06 2.047-1.42 3.12-0.353 1.073-0.53 1.97-0.53 2.69v0c0.033 0.813 0.147 1.7 0.34 2.66 0.193 0.96 0.51 1.83 0.95 2.61 0.44 0.78 1.02 1.413 1.74 1.9 0.713 0.493 1.59 0.64 2.63 0.44v0c0.78 0 1.53-0.16 2.25-0.48 0.713-0.327 1.413-0.67 2.1-1.03 0.68-0.36 1.37-0.703 2.07-1.03 0.7-0.32 1.44-0.48 2.22-0.48v0c0 0.847-0.307 1.587-0.92 2.22-0.62 0.633-1.377 1.147-2.27 1.54-0.9 0.387-1.847 0.677-2.84 0.87-0.993 0.2-1.83 0.3-2.51 0.3v0c-1.107 0-2.123-0.23-3.05-0.69-0.927-0.453-1.733-1.063-2.42-1.83-0.68-0.76-1.21-1.653-1.59-2.68-0.373-1.027-0.56-2.11-0.56-3.25zM62.21 33.37v0c0-0.747 0.063-1.617 0.19-2.61 0.133-0.993 0.347-1.993 0.64-3 0.293-1.007 0.66-2 1.1-2.98 0.433-0.973 0.96-1.843 1.58-2.61 0.62-0.767 1.337-1.387 2.15-1.86 0.813-0.473 1.727-0.71 2.74-0.71v0c1.04 0 2.007 0.36 2.9 1.08 0.893 0.713 1.66 1.64 2.3 2.78 0.633 1.14 1.113 2.41 1.44 3.81 0.32 1.4 0.45 2.767 0.39 4.1v0c0 1.953-0.377 3.697-1.13 5.23-0.747 1.527-1.697 2.763-2.85 3.71-1.16 0.94-2.397 1.573-3.71 1.9-1.32 0.327-2.557 0.237-3.71-0.27-1.16-0.5-2.123-1.45-2.89-2.85-0.76-1.4-1.14-3.307-1.14-5.72zM64.01 33.57v0c0.1 1.987 0.443 3.517 1.03 4.59 0.587 1.073 1.293 1.78 2.12 2.12 0.833 0.347 1.737 0.357 2.71 0.03 0.98-0.327 1.893-0.907 2.74-1.74 0.847-0.827 1.57-1.867 2.17-3.12 0.6-1.253 0.933-2.66 1-4.22v0c0.067-1.173-0.023-2.313-0.27-3.42-0.24-1.107-0.58-2.093-1.02-2.96-0.44-0.86-0.977-1.543-1.61-2.05-0.64-0.5-1.367-0.75-2.18-0.75v0c-0.78 0-1.48 0.193-2.1 0.58-0.613 0.393-1.173 0.923-1.68 1.59-0.507 0.667-0.937 1.423-1.29 2.27-0.36 0.847-0.663 1.693-0.91 2.54-0.24 0.847-0.42 1.667-0.54 2.46-0.113 0.8-0.17 1.493-0.17 2.08zM79.79 23.27v0c0.387-0.167 0.727-0.2 1.02-0.1 0.293 0.1 0.537 0.28 0.73 0.54 0.2 0.26 0.347 0.56 0.44 0.9 0.1 0.34 0.183 0.673 0.25 1v0c0.42-0.713 1.03-1.29 1.83-1.73 0.793-0.44 1.647-0.733 2.56-0.88 0.913-0.147 1.827-0.18 2.74-0.1 0.907 0.08 1.677 0.277 2.31 0.59 0.64 0.307 1.09 0.73 1.35 1.27 0.26 0.533 0.193 1.16-0.2 1.88v0c-0.847-0.493-1.733-0.887-2.66-1.18-0.927-0.293-1.83-0.39-2.71-0.29-0.88 0.1-1.693 0.433-2.44 1-0.747 0.573-1.367 1.477-1.86 2.71-0.487 1.24-0.787 2.877-0.9 4.91-0.113 2.033 0.027 4.563 0.42 7.59v0h-1.86c0 0-0.023-0.267-0.07-0.8-0.053-0.54-0.103-1.25-0.15-2.13-0.047-0.88-0.11-1.857-0.19-2.93-0.087-1.073-0.16-2.163-0.22-3.27-0.067-1.107-0.127-2.173-0.18-3.2-0.047-1.02-0.103-1.907-0.17-2.66v0c0-0.093-0.007-0.287-0.02-0.58-0.013-0.293-0.02-0.613-0.02-0.96 0-0.34 0-0.657 0-0.95 0-0.293 0-0.503 0-0.63z" fill="#b2d0c4" fill-rule="nonzero" stroke="none" stroke-width="1" stroke-linecap="butt" stroke-linejoin="miter" stroke-miterlimit="10" stroke-dasharray="" stroke-dashoffset="0" font-family="none" font-weight="none" font-size="none" text-anchor="none" style="mix-blend-mode: normal" data-fill-palette-color="primary" opacity="1"></path></g></svg></g></svg></g></svg></g></svg></g></svg></g><defs></defs></svg><rect width="395.52" height="229.1809996656189" fill="none" stroke="none" visibility="hidden"></rect></g></svg></g></svg>