<svg xmlns="http://www.w3.org/2000/svg" version="1.1" xmlns:xlink="http://www.w3.org/1999/xlink" xmlns:svgjs="http://svgjs.dev/svgjs" width="1500" height="340" viewBox="0 0 1500 340"><g transform="matrix(1,0,0,1,-0.9084522071641459,-0.8237775428166572)"><svg viewBox="0 0 396 90" data-background-color="#f9f6ed" preserveAspectRatio="xMidYMid meet" height="340" width="1500" xmlns="http://www.w3.org/2000/svg" xmlns:xlink="http://www.w3.org/1999/xlink"><g id="tight-bounds" transform="matrix(1,0,0,1,0.24008861730862918,0.21805876133382185)"><svg viewBox="0 0 395.52 89.56367909604519" height="89.56367909604519" width="395.52"><g><svg viewBox="0 0 395.52 89.56367909604519" height="89.56367909604519" width="395.52"><g><svg viewBox="0 0 395.52 89.56367909604519" height="89.56367909604519" width="395.52"><g id="textblocktransform"><svg viewBox="0 0 395.52 89.56367909604519" height="89.56367909604519" width="395.52" id="textblock"><g><svg viewBox="0 0 395.52 89.56367909604519" height="89.56367909604519" width="395.52"><path d="M394.594 19.21C392.735 9.913 387.435 7.329 387.435 7.329 371.165-2.247 350.86-0.183 332.619 1.193 300.414 1.249 268.339 3.294 236.208 4.391 168.767 4.558 100.749 1.806 33.643 8.593 27.339 10.675-6.54 9.002 1.121 20.4 3.129 25.141 10.456 30.403 10.232 34.754 11.236 35.516 12.631 33.768 13.226 34.865 15.309 37.822 18.711 36.427 21.501 38.175 17.614 42.842 20.403 46.728 23.062 50.8 18.377 51.86 12.371 51.358 9.675 54.872 9.396 57.419 7.89 56.936 6.235 56.824 5.026 56.75 2.59 57.029 2.999 57.828 4.394 60.561-1.594 62.142 2.162 64.819-0.422 67.72 3.948 70.23 3.353 73.372 3.278 74.004 3.687 74.544 4.338 74.692 7.22 75.492 3.018 77.054 3.464 78.746 33.029 90.311 65.104 82.316 95.394 87.633 103.259 83.915 97.346 88.953 100.489 88.172 102.943 87.261 104.728 91.036 107.499 88.898 107.927 88.284 107.276 86.834 108.8 87.113 109.6 87.261 110.307 87.224 110.418 86.369 110.586 85.086 109.117 85.885 108.726 85.216 112.947 81.832 111.906 89.883 115.866 89.548 115.68 88.563 114.528 87.15 116.889 87.336 119.232 85.923 119.306 84.751 121.389 87.931 121.463 88.619 121.835 89.102 122.43 89.437 128.938 85.978 135.409 90.664 142.233 89.102 146.417 87.392 150.433 90.032 154.672 89.381 156.16 88.86 157.666 87.931 159.098 89.493 176.632 89.827 195.319 88.433 211.943 89.548 256.364 87.466 303.836 90.404 350.674 87.652 361.719 86.592 373.192 85.086 383.958 83.877 383.958 83.877 392.679 80.568 392.679 65.693S394.538 52.678 394.817 40.834C395.096 28.99 396.398 28.506 394.538 19.21Z" opacity="1" fill="#21272d" data-fill-palette-color="tertiary"></path><g transform="matrix(1,0,0,1,55.76832,26.230666666666668)"><svg width="283.98335999999995" viewBox="2 -36.25 353.97 46.25" height="37.102345762711856" data-palette-color="#f9f6ed"><path d="M24.85 8.85L31.15 9.2Q31.1 9.9 31.1 9.95L31.1 9.95 23.05 10Q20.6 8.3 18.2 5.65 15.8 3 14.95 0.1L14.95 0.1Q2-0.9 2-17.4L2-17.4Q2-25.55 6.23-30.38 10.45-35.2 16.75-35.2L16.75-35.2Q31.5-35.2 31.5-17.4L31.5-17.4Q31.5-9.7 27.7-5.03 23.9-0.35 18.05 0.15L18.05 0.15Q19.3 4.45 24.85 8.85L24.85 8.85ZM5.4-17.5L5.4-17.5Q5.4-0.8 16.75-0.8L16.75-0.8Q21.65-0.8 24.88-5.28 28.1-9.75 28.1-17.5L28.1-17.5Q28.1-34.2 16.75-34.2L16.75-34.2Q11.9-34.2 8.65-29.73 5.4-25.25 5.4-17.5ZM38.65-23.95L36.05-24.2 36-24.95 42.75-25 42.75-7.6Q42.75-5.65 43.3-4.23 43.85-2.8 44.52-2.15 45.2-1.5 46.1-1.15L46.1-1.15Q47.5-0.65 48.45-0.75L48.45-0.75Q51.5-0.8 55.4-3.9L55.4-3.9 55.4-23.25Q55.2-23.85 54.55-23.95L54.55-23.95 51.95-24.2Q51.9-24.5 51.9-24.95L51.9-24.95 58.65-25 58.65-2.3Q58.75-1.05 59.45-1.05L59.45-1.05 62.45-0.9 62.4-0.15Q60 0.25 57.4 0.25L57.4 0.25Q56.8 0.2 56.1-0.43 55.4-1.05 55.4-2L55.4-2 55.4-2.9Q50.85 0.15 46.8 0.15L46.8 0.15Q45.1 0.15 42.8-0.7L42.8-0.7Q41.3-1.25 40.4-2.78 39.5-4.3 39.5-6.6L39.5-6.6 39.5-23.2Q39.5-23.45 39.22-23.68 38.95-23.9 38.65-23.95L38.65-23.95ZM70.95-11.5L70.95-11.5Q70.95-0.7 79.35-0.7L79.35-0.7Q81.55-0.7 84.05-1.18 86.55-1.65 87.25-2.05L87.25-2.05 87.6-1.55Q86.45-0.8 83.82-0.3 81.2 0.2 79.02 0.2 76.85 0.2 75.12-0.25 73.4-0.7 71.6-1.85 69.8-3 68.75-5.45 67.7-7.9 67.7-11.45L67.7-11.45Q67.7-18.05 71.1-21.55L71.1-21.55Q74.65-25.2 79.35-25.2 84.05-25.2 86.52-22.6 89-20 89-15.3L89-15.3Q89-14.3 88.85-13.15L88.85-13.15 71-13.15Q70.95-12.6 70.95-11.5ZM86.05-15.65L86.05-15.65Q86.05-19.4 84.4-21.78 82.75-24.15 79.9-24.15L79.9-24.15Q76.2-24.15 73.65-20.9L73.65-20.9Q71.6-18.35 71.1-14.1L71.1-14.1 86-14.1Q86.05-14.65 86.05-15.65ZM96.24-11.5L96.24-11.5Q96.24-0.7 104.64-0.7L104.64-0.7Q106.84-0.7 109.34-1.18 111.84-1.65 112.54-2.05L112.54-2.05 112.89-1.55Q111.74-0.8 109.12-0.3 106.49 0.2 104.32 0.2 102.14 0.2 100.42-0.25 98.69-0.7 96.89-1.85 95.09-3 94.04-5.45 92.99-7.9 92.99-11.45L92.99-11.45Q92.99-18.05 96.39-21.55L96.39-21.55Q99.94-25.2 104.64-25.2 109.34-25.2 111.82-22.6 114.29-20 114.29-15.3L114.29-15.3Q114.29-14.3 114.14-13.15L114.14-13.15 96.29-13.15Q96.24-12.6 96.24-11.5ZM111.34-15.65L111.34-15.65Q111.34-19.4 109.69-21.78 108.04-24.15 105.19-24.15L105.19-24.15Q101.49-24.15 98.94-20.9L98.94-20.9Q96.89-18.35 96.39-14.1L96.39-14.1 111.29-14.1Q111.34-14.65 111.34-15.65ZM127.84 0L117.79 0.05 117.84-0.65 120.44-1Q120.89-1.05 120.89-1.7L120.89-1.7 120.89-23.35Q120.79-23.75 120.59-23.75L120.59-23.75 117.54-23.85 117.59-24.55Q120.74-25 121.84-25L121.84-25Q123.84-25 124.09-23.25L124.09-23.25 124.14-23.25 124.14-22.2Q128.24-25 131.99-25.15L131.99-25.15Q135.64-25.15 137.54-23.7L137.54-23.7Q138.39-23.05 139.06-21.68 139.74-20.3 139.74-18.4L139.74-18.4 139.74-1 143.49-0.75Q143.49-0.7 143.44 0L143.44 0 133.44 0.05Q133.44-0.4 133.49-0.65L133.49-0.65 136.09-1Q136.49-1.05 136.49-1.7L136.49-1.7 136.49-17.15Q136.49-19.15 135.97-20.55 135.44-21.95 134.79-22.6 134.14-23.25 133.19-23.6L133.19-23.6Q132.09-24 130.89-24L130.89-24Q127.89-23.95 124.14-21.65L124.14-21.65 124.14-1 127.89-0.75Q127.89-0.7 127.84 0L127.84 0ZM153.09-22.95L153.09-22.95 153.09-1 156.84-0.75Q156.84-0.7 156.79 0L156.79 0 146.79 0.05Q146.79-0.4 146.84-0.65L146.84-0.65 149.44-1Q149.74-1 149.84-1.45L149.84-1.45 149.84-23.4Q149.74-23.75 149.54-23.75L149.54-23.75 146.54-23.85 146.59-24.55Q149.29-25 150.69-25 152.09-25 152.59-24.35 153.09-23.7 153.09-22.95ZM151.39-31.7Q150.39-31.7 149.84-32.33 149.29-32.95 149.29-33.98 149.29-35 149.86-35.63 150.44-36.25 151.44-36.25 152.44-36.25 153.06-35.63 153.69-35 153.69-33.93 153.69-32.85 153.04-32.27 152.39-31.7 151.39-31.7ZM164.84-11.5L164.84-11.5Q164.84-0.7 173.24-0.7L173.24-0.7Q175.44-0.7 177.94-1.18 180.44-1.65 181.14-2.05L181.14-2.05 181.49-1.55Q180.34-0.8 177.71-0.3 175.09 0.2 172.91 0.2 170.74 0.2 169.01-0.25 167.29-0.7 165.49-1.85 163.69-3 162.64-5.45 161.59-7.9 161.59-11.45L161.59-11.45Q161.59-18.05 164.99-21.55L164.99-21.55Q168.54-25.2 173.24-25.2 177.94-25.2 180.41-22.6 182.89-20 182.89-15.3L182.89-15.3Q182.89-14.3 182.74-13.15L182.74-13.15 164.89-13.15Q164.84-12.6 164.84-11.5ZM179.94-15.65L179.94-15.65Q179.94-19.4 178.29-21.78 176.64-24.15 173.79-24.15L173.79-24.15Q170.09-24.15 167.54-20.9L167.54-20.9Q165.49-18.35 164.99-14.1L164.99-14.1 179.89-14.1Q179.94-14.65 179.94-15.65ZM188.33-28.65L188.33-29.35 188.38-33.05Q188.38-35.1 188.33-35.75L188.33-35.75 187.83-35.75 189.53-35.9Q189.53-34.95 189.48-33.85 189.43-32.75 189.41-31.9 189.38-31.05 189.33-30.33 189.28-29.6 189.23-28.75L189.23-28.75 188.33-28.65ZM203.73-0.6L203.73-0.6Q204.03-0.6 204.33-0.65L204.33-0.65Q206.93-0.7 208.68-2.27 210.43-3.85 210.43-6.9L210.43-6.9Q210.43-9.9 205.73-11.25L205.73-11.25Q203.78-11.8 201.83-12.45 199.88-13.1 198.51-14.5 197.13-15.9 197.13-18.15L197.13-18.15Q197.13-21.35 199.58-23.28 202.03-25.2 205.78-25.2L205.78-25.2Q208.58-25.2 211.43-24.2L211.43-24.2 212.33-23.85 212.33-18.1 211.38-17.75 211.18-22Q208.28-24.3 206.33-24.3L206.33-24.3Q203.58-24.3 201.98-22.68 200.38-21.05 200.38-18.35L200.38-18.35Q200.38-16.8 201.76-15.85 203.13-14.9 205.08-14.35 207.03-13.8 208.98-13.13 210.93-12.45 212.31-10.93 213.68-9.4 213.68-6.95L213.68-6.95Q213.68-3.65 211.21-1.73 208.73 0.2 204.18 0.2 199.63 0.2 196.63-1.95L196.63-1.95 196.63-7.7 197.53-8.05 197.78-3.8Q198.48-2.5 200.31-1.55 202.13-0.6 203.73-0.6ZM235.58-33.95L232.93-34.25 232.98-35 245.18-35Q251.93-35 256-31.08 260.08-27.15 260.08-18.3L260.08-18.3Q260.08-9.55 257.23-5.2L257.23-5.2Q254.73-1.4 249.43-0.4L249.43-0.4Q247.08 0 243.93 0L243.93 0 242.98 0 232.93 0.05 232.98-0.65 235.58-1Q236.08-1.05 236.18-1.65L236.18-1.65 236.18-33.25Q236.08-33.9 235.58-33.95L235.58-33.95ZM244.93-34.25L244.93-34.25 239.58-34.25 239.58-0.75 243.68-0.75Q246.08-0.75 247.75-1.03 249.43-1.3 251.25-2.33 253.08-3.35 254.13-5.15L254.13-5.15Q256.68-9.4 256.68-18.05L256.68-18.05Q256.68-27.05 253.13-30.8L253.13-30.8Q249.88-34.25 244.93-34.25ZM267.07-11.5L267.07-11.5Q267.07-0.7 275.47-0.7L275.47-0.7Q277.67-0.7 280.17-1.18 282.67-1.65 283.37-2.05L283.37-2.05 283.72-1.55Q282.57-0.8 279.95-0.3 277.32 0.2 275.15 0.2 272.97 0.2 271.25-0.25 269.52-0.7 267.72-1.85 265.92-3 264.87-5.45 263.82-7.9 263.82-11.45L263.82-11.45Q263.82-18.05 267.22-21.55L267.22-21.55Q270.77-25.2 275.47-25.2 280.17-25.2 282.65-22.6 285.12-20 285.12-15.3L285.12-15.3Q285.12-14.3 284.97-13.15L284.97-13.15 267.12-13.15Q267.07-12.6 267.07-11.5ZM282.17-15.65L282.17-15.65Q282.17-19.4 280.52-21.78 278.87-24.15 276.02-24.15L276.02-24.15Q272.32-24.15 269.77-20.9L269.77-20.9Q267.72-18.35 267.22-14.1L267.22-14.1 282.12-14.1Q282.17-14.65 282.17-15.65ZM301.87-24.3L301.87-24.3Q297.62-24.3 295-20.98 292.37-17.65 292.37-11.55L292.37-11.55Q292.37-0.7 300.62-0.7L300.62-0.7Q303.87-0.7 306.17-1.33 308.47-1.95 308.67-2.1L308.67-2.1 309.02-1.55Q307.87-0.8 305.22-0.3 302.57 0.2 300.42 0.2 298.27 0.2 296.52-0.25 294.77-0.7 293-1.85 291.22-3 290.17-5.48 289.12-7.95 289.12-11.5L289.12-11.5Q289.12-18.05 292.47-21.4L292.47-21.4Q296.22-25.25 301.92-25.25L301.92-25.25Q303.72-25.25 305.75-24.78 307.77-24.3 308.87-23.3L308.87-23.3 308.87-16.75 307.92-16.4 307.67-21.65Q306.57-22.8 305-23.55 303.42-24.3 301.87-24.3ZM323.44 0.2Q318.22 0.2 314.99-2.8 311.77-5.8 311.77-11.98 311.77-18.15 315.19-21.68 318.62-25.2 323.82-25.2 329.02-25.2 332.27-22.2 335.52-19.2 335.52-13.03 335.52-6.85 332.09-3.33 328.67 0.2 323.44 0.2ZM323.77-24.3Q320.02-24.3 317.52-21.05 315.02-17.8 315.02-12.23 315.02-6.65 317.39-3.68 319.77-0.7 323.52-0.7 327.27-0.7 329.77-3.95 332.27-7.2 332.27-12.75 332.27-18.3 329.89-21.3 327.52-24.3 323.77-24.3ZM344.82-22.95L344.82-22.95 344.82-18.95Q348.77-24.75 352.57-24.85L352.57-24.85Q352.87-24.85 353.17-24.85L353.17-24.85 355.97-24.5 354.67-21.5Q353.72-22.45 352.22-22.45L352.22-22.45Q348.57-22.4 344.82-17.6L344.82-17.6 344.82-1 349.07-0.75Q349.07-0.7 349.02 0L349.02 0 338.52 0.05Q338.52-0.4 338.57-0.65L338.57-0.65 341.17-1Q341.57-1.05 341.57-1.7L341.57-1.7 341.57-23.4Q341.47-23.75 341.27-23.75L341.27-23.75 338.27-23.85 338.32-24.55Q341.02-25 342.42-25 343.82-25 344.32-24.35 344.82-23.7 344.82-22.95Z" opacity="1" transform="matrix(1,0,0,1,0,0)" fill="#f9f6ed" class="wordmark-text-0" data-fill-palette-color="quaternary" id="text-0"></path></svg></g></svg></g></svg></g></svg></g><g></g></svg></g><defs></defs></svg><rect width="395.52" height="89.56367909604519" fill="none" stroke="none" visibility="hidden"></rect></g></svg></g></svg>