<?xml version="1.0" encoding="UTF-8"?>
<svg version="1.1" viewBox="0 0 1807 2048" width="1280" height="1280" xmlns="http://www.w3.org/2000/svg">
<path transform="translate(0)" d="m0 0h1807v2048h-1807z" fill="#FBFBFB"/>
<path transform="translate(772)" d="m0 0h2l1 30 31 1 15 2 23 6 24 10 35 17 16 8 24 11 17 9 23 11 14 8 10 9 7 9 4 10 1 4v12l-4 9-4 6-12 9-6 3h-2v2l11 1 13 4 7 6 2 13v31l8 3 3 5 1 9 21 2 97 6 182 12 89 6 93 8 5 1 1-10 3-5 4-3 5-1 21 2 18 3 13 1h13l4-4 5 2 2 3 15 3 2 2v13l35 5 19 4 16 6 12 7 7 9 4 13 1 8v41l-2 33-4 38-6 49-3 43-4 57-1 13v126l-2 57-3 47-3 38-3 25-5 23-3 20-4 12-5 10-6 7-14 8-15 4h-32l-36-2-45-2-177-8-173-8-34-2-63-5-97-11-57-7-4 16-10 35-10 28-7 12-11 13-9 10-7 10-13 28-14 31-21 49-7 16 1 4 17 13 16 13 20 13 6 7 3 6 1 4v12l-4 16-8 16-9 13-6 9-13 24-9 12-8 8-11 7-11 4-18 1-20-4-2 14-2 15 9 2 18 7 19 10 14 9 10 8 12 12 9 13 7 14 4 15 6 35 7 28 7 19 8 15 7 8 6 5 1 6-2 5-4 2-15-2-104-22-37-8-15-5v2l9 3 12 6 11 8 14 12 16 16 7 8 11 13 11 14 9 12 1 6-3 5-8 3-19 3h-23l-26-5-19-7-17-10h-2l1 4 8 6 7 8 9 16 7 16 11 34 2 8v8l-5 5-12-1-18-6-15-8-9-7h-1l-19 96-6 36-3 12-7 14-5 4h-5l-2-4v-11l4-16 8-26 7-29 15-72 2-11v-5l-8-11-5-11-3-12v-8l2-9 1-7-4-7-2-1-2 4-12 14-8 8-2 5 1 8v12l-5 10-9 9-13 8-20 9-29 9-15 4h-9l-5-5 1-11 6-18 7-13 8-11 13-13 15-9 7-3 9-2h14l9 1 5-3 10-9 12-15 4-9-3-11-8-24-6-25-4-25-7 17-7 10-15 16-11 14-12 17-12 19-12 22-8 15-5 10-4 2-7-1-8-7-3-2v13l-4 24-11 34 1 9 12 36 7 27 7 36 5 38 2 17 2 3 15 5 11 7 6 5 10 3 7 8 2 9-3 8-7 6-5 2-9-1-6-4-3-3-2-6v-12l-9-6-8-3 1 7 6 7 1 2v12l-4 6-8 5h-9l-6-3-5-6-2-5 1-9 4-6 3-4-1-21-1-5-5 1-13 10-8 8-10 14-9 16-3 6 1 5 2 4v9l-6 9-8 4-9-1-5-3-5-6-1-2v-11l5-8 9-5 8-16 9-15 8-10 9-10 12-10 13-8 4-2-1-14-4-26-7-34-8-28-5-15h-2l-6 11-12 18-1 7 3 15 1 11v24l-2 16-6 25-7 18v16l-4 8-7 5-9 1-8-4-4-5-2-4v-9l3-6 5-5 9-4 4-8 5-15 3-12 2-15v-27l-2-6-5 1-16 17-18 18-2 4 1 8 2 8v9l-4 17-7 14-7 11-6 8-1 11-4 6-5 4-8 2-9-3-5-5-3-7 1-9 4-6 6-4 12-3 8-11 8-16 2-13-2-5-5 1-10 8-18 14-6 4-3 4-1 7-7 8-8 3-7-1-6-4-5-6-1-9 3-8 6-5 5-2h11l8-5 13-10 16-13 14-12 1-1v-5l-7-3-6-1h-22l-24 4-11 3-7 9-6 4-9 1-8-4-4-5-2-5v-7l4-8 5-4 10-2 9 3 2 1 22-5 13-2h34l12 3 10 4 5-1 10-9 12-13 11-14 9-12 6-9-22 5-22 13-21 10-22 7-8 7-5 3-8 1-8-3-6-7-1-3v-8l3-7 6-5 2-1h11l8 4h8l22-8h2v-2h-13l-9 5h-11l-6-3-5-8-1-7 3-9 8-6 3-1h7l8 4 6 6 7 1h26l18-2 20-5 13-5 3-1 2-6 7-16 6-19 4-18 1-9v-28l-2-7-5-8-5-1-9 10-8 7-14 10-15 7-13 4-8 1h-19l-13-2-16-6-19-10-6 1-8 20-7 17-9 17-9 13-8 10h-2l-1 3-10 8-16 8-7 2h-14l-6 27-7 33-3 6-3 2-5-1-2-3 2-14 11-53v-4l-4-2-8-7-9-11-7 1h-15l-13-5-11-8-10-12-5-12-1-5v-12l4-16 9-17 8-11 8-10 6-7v-3h-9l-8 1h-21l-21-4-16-7-13-9-7-7-8-13-6-14-3-13v-13l3-11 5-8 8-10-1-5-9-17-4-14-2-13v-11l3-12 6-10 9-9 11-7 14-7 23-7 21-4 28-4 5-2 4-5 1-3v-20l3-14 1-26 2-10 4-10-13-6-14-7-15-10-12-9-10-8-14-12-12-11-4-3v-2l-4-2-31-31-7-8-4-5-1-2v-6l4-4 2-1 26-1 26-3 22-5 27-9 24-9 21-7 21-5h3v-2l-4-2-13-10-10-5-4-1h-10l-11 4-23 10-15 5-20 5-20 3-12 1-10 7h-12l-6-4-4-5-2-9 3-8 5-5 7-3 9 1 6 4 4 3 20-1 24-5 21-7 16-8v-4l-9-4-17-5-22-4-14-2h-38l-29 4-5 3-7 8-5 2h-10l-7-4-4-6-1-9 3-8 7-6 4-1h7l7 3 4 1 19-3 23-2h26l22 2 13 3-4-5-10-5-5 1-5 2h-8l-7-3-5-6-1-3v-10l4-7 8-5h9l8 5 5 7 16 9 10 9 11 14 8 5 25 11 12 6-2-6-8-19-7-21-6-24v-6l4-5h17l25 4 26 7 15 6 16 8 14 10 10 10 5 6 9 5 5 2 6 1-6-11-13-19-14-18-9-10-7-8-8-9-8-7-8-6-10-4h-26l-47 4-5 4-4 14-6 8-8 6-11 5-11 3-14 2-24 1-41-3-31-4-7-3-3-4 1-7 7-11 9-10 6-7 11-9 13-9 15-8 21-7 15-2h16l15 3 14 7 13 13h10l17-2 40-2v-2l-4-2-17-12-15-10-22-13-23-12-8-3-6 1-8 8-10 5-11 1-14-3-12-5-15-8-17-12-14-11-11-9-10-9-5-4-2-4 1-7 5-4 16-6 14-3 7-1h25l19 4 13 5 12 7 10 9 7 9 6 15v2l5 2 14 6-9-9-9-14-6-13-4-13-3-20v-18l2-17 6-21 6-15 4-4 6-1 6 4 13 15 11 14 14 19 11 17 11 21 6 18 1 5v13l-3 10-8 12 1 9 10 25 9 10 14 11 13 11 12 11 5 4-5-18-9-38-2-6-9-7-7-10-5-13-1-8v-19l2-12 2-6v-10l-9-37-9-39-8-42-4-28-5-44-2-21-11-29-7-24-5-26-1-8v-25l3-13 6-14 10-16 17-25 14-19 12-14 34-34 8-7 9-10 12-15 13-18 14-19 11-13 7-9 8-7 17-17 7-8 14-14 9-11 12-15 9-13 15-22 8-11 15-23 10-16 9-15 15-27 17-33 8-15 8-10 11-9 14-7 14-4 17-2 52-1 27-2 56-6 10-1z" fill="#211E20"/>
<path transform="translate(551,191)" d="m0 0h22l100 15 61 10 28 6 11 3 9 3 19 8 16 10 14 10 21 16 16 12 17 13 19 14 13 10 16 12 14 11 5 4v2l4 2 9 10 7 12 3 10v23l-4 12-5 9-9 10-10 6-12 5-15 3h-22l-16-4-20-9-22-13-25-16-17-11-18-11-12-6-19-7-36-8-21-3-13-1h-41l-23 4-10 3-11 7-12 11-10 10-7 8-9 10-8 10-11 13-9 11-8 9-9 11-11 13-10 9-23 10-35 14-16 7-17 9-5 3h-2l-2 4-1 4 4 6 21-7 105-42 26-10 31-11 47-15 37-10 25-5 9-1h11l15 3 16 8 10 7 10 10 7 11 8 15 9 22 12 28 14 30 16 33 10 19 12 23 8 14 8 16 14 27 13 23 13 24 16 27 13 21 13 22 10 18 1 8-5 12-7 9-10 8-16 7-11 2h-18l-16-4-10-4-10-6-13-10-13-12-12-14-13-18-10-15-7-12-11-23-17-39-13-30-14-48-8-18-8-11-9-8-9-4-16-2-19 3-36 10-52 12-47 12-53 15-33 11-2 2 1 5 1 2 9-1 48-10 54-13 102-26 19-4h7l11 3 9 7 7 7 8 14 5 16 9 33 9 26 11 25 12 25 12 22 9 15 12 17 11 14 10 12 12 16 6 10 3 10v15l-5 11-2 8-8 6-9 3h-24l-21-5-16-6-15-8-10-8-12-12-12-16-11-17-12-20-7-9-14-10-17-12-12-9-2-3 7-13v-7l-5-5-7 1-8 13-10 11-5 5-8 7-14 8-4 1-1 11 4 23 3 28 2 35 1 41-13 10-14 14-12 17-8 14-2 2-5-1-5-8-6-12-8-12-8-10-11-11-13-9-14-7-9-3-5-1h-18l-11 4-4 3h-2v2l-5 5-5 11-1 6-1 16-2 1-8-2h-14l-7 4-5 8-3 12v18l4 17 3 10v2l-4-2-11-15-7-10-6-16-7-24-5-25-3-17v-11l11-10 3-6 2-11v-10l-3-18-7-23-11-28-3-5v-2h-9l-7 6-6 9-3-1-10-44-8-36-6-34-3-20-5-44-1-8v-15l-7-15-10-30-5-21-3-19v-24l4-13 7-14 16-24 12-17 9-12 12-14 28-28 8-7 9-9 18-22 26-36 8-10 5-5 9-10 25-25 7-8 10-10 7-8 12-15 26-38 7-7 23-12 18-7z" fill="#FBFBFB"/>
<path transform="translate(1392,503)" d="m0 0 26 3 30 5 76 7 21 2 145 11 1 1v9l-4 44-1 24-1 70-5 50-5 51-4 54-2 49-2 6-5 2h-26l-27-2-63-8-18-2-71-6-69-4-111-2-85-4-62-4-59-5-63-6-38-4-3-2-9-20-13-22-13-18-2-4 7 1h10l13-4 10-7 10-12 6-12 3-11v-22l-4-11-6-8-8-5-7-3 1-7 4-26 1-24 1-8 2 2 7 28 12 36 8 21 12 23 10 13 9 10 12 12 16 12 13 8 17 9 25 10 21 6 23 5 18 2 9 2 10 5 7 2 30 5 17 4h4l1-6-8-4-25-7 1-2 21-3 5-1h12l32 6 18 2h31v-7l-10-2-37-5-11-2v-2l16-6 13-6 8 1 34 6 24 3 13 1v-8l-35-5-25-5-2-2 16-11 38 6 20 3 2-1 1-7-8-1-28-6-13-2 2-4 9-10 10 1 46 5h5l-1-7-11-2-41-6 1-5 4-7 9 1 26 6 14 4h3l1-7-24-8-23-6 3-9 4-7 13 1 32 3h19v-7l-4-1-35-3-20-3-1-3 5-15 5-1 25 4 32 4 1-7-7-2-43-7-9-2-1-3 3-12 7 1 25 5 9 1h21v-7l-19-1-24-5-16-4-1-1v-14l1-2 60 8h6v-6l-15-4-42-7-8-1-2-2v-11l2-1 33 4 27 1-1-7-42-5-19-3-2-2-1-7v-8l54 3 1-7-8-2-45-5-4-1-1-9 24 1 27 3v-7l-10-3-16-3-26-2-3-2-1-7 3-1h33l1-7-13-2-24-2-5-1-4-10z" fill="#FCFCFC"/>
<path transform="translate(1178,450)" d="m0 0h29l20 3 21 6 13 6 11 6 14 10 15 15 11 16 11 21 8 24 4 21v35l-4 20-6 18-11 21-10 13-11 12-15 12-17 10-15 6-21 6-19 2h-12l-16-1-21-4-21-8-17-9-13-9-11-9-11-11-13-17-8-14-7-15-6-21-3-21v-21l4-24 5-15 8-17 10-14 11-12 12-11 18-11 19-9 23-7z" fill="#211E20"/>
<path transform="translate(856,260)" d="m0 0 33 1 187 12 75 5 8 1 23 1 183 12 95 7 86 8 42 5 48 6 34 5 12 3 10 6 5 7 3 9 1 8v41l-1 55-1 25-4 34-1 3-19-1-225-22-71-7-5-5-9-15-4-7 14 1 56 7 52 6 52 5 72 6 25 1 5-63 7-72v-11l-86-9-51-5-64-5-66-4-44-5-53-3-69-6-53-4h-10l-2 10-2 35-2 43-2 2-25 7-22 8-16 8-16 9-17 12-15 13-7 7-26-2-28-3 2-4 7-9 6-12 3-10 1-7v-16l-4-16-9-16-12-13-3-3 1-31h-7l-2 23-7-4-15-11-1-29-3-1-3 2-2 19-4-1-10-8-2-2-1-22-7-1-1 14h-4l-21-16-14-10z" fill="#FCFCFC"/>
<path transform="translate(979,860)" d="m0 0 4 1-1 17v16l4 1 2-1 4-19 2-11 3-1 12 2 1 1v18l1 9 5 1 2-2 4-24 12 1 13 2 1 2-3 19-2 19v15l4 1 3-3 7-39 3-11 4-1 29 3 1 1v42l1 7 7-1 1-5 2-29 2-13 30 2 9 1 2 3v33h8l1-4 2-27 2-4 37 2 2 1 1 22 1 5 8 2 2-27 3-2 66 3 56 3 224 14 31 2 52 2 13 1h11l1 1v24l-2 8v12l-6 12-9 8-9 4-12 2h-21l-63-2-22-1-93-3-95-4-80-4-68-4-86-6-71-6-9-1-1-1v-26l-1-7-7 1-3 31-3 1-24-3 1-31-2-2h-5l-2 24-1 8-25-2-26-3-1-1 1-8 3-11 5-3 10-3 14-7 10-9 6-9 3-8 2-9 1-10z" fill="#FCFCFC"/>
<path transform="translate(766,43)" d="m0 0h6l1 2 2-2h30l19 3 20 6 23 10 17 8 16 8 17 8 38 19 23 11 12 7 10 9 5 8 2 7v8l-5 8-7 6-16 8-16 6-9 2-9 1h-13l-31-2-24-3-28-5-36-9-19-6-1-1h-19l-9 3-46 8-15 2-16 1-8 3-12 11-6 5-21-3-65-10-19-1-20 4-15 5-12 5 2-5 12-19 13-22 12-22 10-19 11-22 7-10 4-5 11-8 12-5 13-3 13-1 52-1 27-2 43-5z" fill="#FCFCFC"/>
<path transform="translate(1172,411)" d="m0 0h38l18 2 18 4 21 7 18 8 16 10 13 10 12 11 9 11 10 14 10 17 10 23 6 18 5 21 2 15 1 21-1 19-3 18-6 22-6 15-8 16-6 10-9 12-12 14-12 11-13 10-13 8-16 8-15 6-23 6-20 3h-35l-20-3-17-4-20-7-25-12-16-10-14-11-13-12-11-12-12-16-8-13-6-10-8-20-7-24-3-16-1-10v-31l3-21 5-19 6-16 11-21 12-16 14-15 11-9 12-9 21-12 24-10 20-6 17-3zm6 39-21 3-23 7-23 11-15 10-13 12-11 12-10 16-8 18-4 14-3 20v21l3 21 6 21 11 23 10 14 11 13 10 10 16 12 16 9 16 7 11 4 21 4 16 1h12l19-2 21-6 17-7 16-10 10-8 10-9 10-12 9-14 9-19 5-17 3-16v-35l-5-25-7-20-12-23-12-16-14-14-10-7-15-9-21-8-18-4-14-2z" fill="#FCFCFC"/>
<path transform="translate(619,975)" d="m0 0h8l7 3 5 6 2 6-1 10-11 19-10 21-10 28-8 26-6 23-1 11 3 5h8l3-3 10-38 9-29 12-29 8-15 8-11 7-6 9-3h31l18 6 12 7 11 10 9 14 7 16 4 18 1 8v28l-2 17-4 19-7 19-8 15-10 14-20 20-16 11-16 9-16 7-21 7-18 4h-8l-5-5-1-7 4-6 5-2 20-2 5-3v-8l-4-4h-15l-16 3h-8l-5-6v-6l7-12 3-7-1-5-3-3h-10l-2 5-4 6-5 4-2 1h-12l-6-4-4-4-2-5-3-19-5-21-3-7-2-2h-7l-4 4 1 11 6 25 1 11-4 9-5 4-13 7-3 2-1-1-1-9v-32l2-26 4-26 7-28 9-24 10-21 9-15 10-13 9-10 14-10 16-8 9-3z" fill="#FCFCFC"/>
<path transform="translate(603,835)" d="m0 0h3l-3 28-1 13v14l2 8 5 8 9 8 15 7 18 4 22 2h13l23-1 9 9 16 10 15 7 20 6 12 3h29l9-3 8-4 8-7 1-2 16 1 59 8 3 1-1 5-12 43-10 28-7 12-15 16-10 14-8 16-13 28-11 25-17 39-8 19-6-2-15-7-12-3-10-2-1-2 11-25 6-20 3-12 2-20v-29l-2-16-4-15-7-17-8-13-9-10-7-7-14-8-12-5-16-4-10-1h-9l-15 2-9 1-5-10-5-9-9-6-7-2h-14l-12 3-12 5h-3v-43l-2-37-5-39 15-9z" fill="#FCFCFC"/>
<path transform="translate(208,1441)" d="m0 0h7l10 3 8 7 9 11 19 19 14 11 13 10 8 6 3 4-1 8-6 5h-8l-24-5-4-1h-9l-3 5 1 6 4 3 13 4 16 3 18 2 2 2-1 5-12 5-14 9-10 8-2 6 3 6 7 1 6-4 11-8 14-7 6-1 6 5 1 7-4 5-23 15-21 12-15 8-19 8-21 7-17 4-9 1h-23l-14-3-13-5-10-7-7-7-8-15-4-15v-8l4-10 7-8 11-6 11-2 11-4 5-4v-8l-4-3h-6l-11 4-6 1-6-3-7-8-5-12-4-16v-15l5-9 5-6 10-7 13-6 16-5 13-3 28-4z" fill="#FCFCFC"/>
<path transform="translate(750,1203)" d="m0 0h12l16 4 15 8 16 11 16 13 19 14 11 7 5 6 1 7-4 15-8 15-7 9-7 11-11 21-10 13-10 8-11 4h-16l-43-9-33-7-16-3-23-2-9-2-7-6-10-15-13-17-12-14-9-10 2-1 15 5 20 3 35 1 6-2 2-3v-6l-2-3-3-1-27-1-26-3-13-4v-3l17-2 28-7 22-8 22-11 18-12 13-11 11-9z" fill="#FCFCFC"/>
<path transform="translate(781,443)" d="m0 0h14l41 4 10 2 15 8 18 7 17 4 7 1h22l14-3 12-5 2-1h8l27 4 20 2-2 4-8 13-8 15-8 21-5 18-5 28-4 13-15-3-31-2-17-2h-13l-3 13-8 56-4 38-2 2-5-10-11-27-9-22v-4l23-2-1-7-26-1-3-3-7-20 5-1 17-1 1-4-2-3-25-2-4-6-8-19v-3l36 1 8-2-1-7-28-1-21-3-4-7-5-10v-3h26l6-1-1-6-13-2-21-2-5-2-5-9v-3l21 1h13l1-6-1-2-39-5-5-2-8-13-4-5 3-1 2 1 23 3h5l2-2v-5l-7-3-17-5z" fill="#FCFCFC"/>
<path transform="translate(281,1317)" d="m0 0h17l17 3 13 5 14 9 10 9 9 10 9 15 6 15 4 14 1 7v12l-5 10-9 14-8 16-7 19-3 7-2-1-1-3-1-36-4-5h-7l-3 1-5 30-2 2-6-9-7-11-5-5h-6l-4 4v7l12 19 7 14-1 5-3 2-4-1-14-10-14-11-12-11-8-7-10-11-11-15-7-14-2-6v-18l5-10-1-13v-10l3-12 4-8 9-10 14-8 11-3z" fill="#FCFCFC"/>
<path transform="translate(329,1586)" d="m0 0h2l-2 12-3 9-6 5-2 6 3 6 7 1 7-4 7-12 1-3h2v22l-3 31-5 26-6 20-8 21-11 20-9 12-9 10-10 7-7 3-11 1-9-3-8-6-4-7 1-6 7-8 7-7 10-13 8-13 2-3v-8l-6-4-6 2-4 5-8 13-8 10-13 13-11 7-7 2h-10l-9-4-8-7-6-9-2-6v-13l5-14 8-13 8-10 9-10 12-12 8-7 18-14 12-7 16-8 22-13 22-15z" fill="#FCFCFC"/>
<path transform="translate(409,1535)" d="m0 0 23 1 20 4 13 5 10 6 10 9 6 7 6 12 3 11v27l-5 19-9 19-9 12-9 10-13 10-14 7-14 4-7 1h-10l-18-4-14-6-12-8-6-8-2-7 1-14 1-10v-60l4-3 5 2 8 16 11 24 4 2 8-1 1-2v-8l-8-18-10-22 1-6 2-2 4 1 16 7 6 2h9l3-1v-10l-4-3-16-6-6-4-2-3 1-7 4-4z" fill="#FCFCFC"/>
<path transform="translate(428,973)" d="m0 0h17l13 5 9 5 10 8 7 6 11 14 9 16 6 15 4 17-2 15-7 29-4 23-3 33v40l-2-1-3-9-1-6-1-16-6-5-7 2-3 4 1 15 4 16 5 12-1 2-13-14-10-13-10-18-6-14-6-17-7-25-6-12-10-9-12-8-10-7-10-9-5-8-3-9-1-5v-15l3-7 3-2h9l8 4 6 7 8 18 10 18 10 13 6 7 8 1 4-3v-8l-11-14-9-14-8-16-6-19-2-10v-14l4-10 8-7z" fill="#FCFCFC"/>
<path transform="translate(1170,399)" d="m0 0h44l25 4 16 4 18 6 17 8 18 11 13 10 12 11 10 11 12 17 10 17 8 17 8 22 6 24 4 30v21l-3 25-5 21-8 22-8 16-8 14-9 12-12 14-10 10-14 11-15 10-21 11-19 7-25 6-15 2-23 1-25-2-22-4-20-6-24-10-18-10-17-12-10-8-14-13-7-8-13-16-10-15-12-23-7-20-5-19-3-16-1-10v-35l3-20 6-23 8-19 9-17 12-17 11-12 9-9 14-11 15-10 19-10 20-8 24-7 21-4zm2 12-23 3-17 4-21 7-20 9-17 10-12 9-14 12-12 13-11 15-12 23-8 24-4 20-1 10v31l3 21 6 23 7 19 7 14 10 16 14 18 14 15 10 9 15 11 15 9 25 12 18 6 22 5 15 2h35l20-3 23-6 20-8 18-10 14-10 10-9 8-7 9-10 13-18 10-18 8-20 7-26 2-14 1-24-2-24-4-20-6-21-11-26-9-16-11-16-9-10-7-8-11-9-14-10-14-8-19-8-19-6-22-4-11-1z" fill="#211E20"/>
<path transform="translate(589,1296)" d="m0 0 4 2 12 13 11 14 10 13 9 16 6 15 6 20 3 17v10l-3 15-5 9-9 8-9 4-7 2-8 1h-17l-16-2-15-4-21-10-14-11-8-8-9-12-8-13-2-6 1-7 9-7 8-7 7-7 12-18 11-23 4-11 2-2 4 1 2 6v19l-2 14v9l3 3h8l3-4 2-7 2-20v-20l2 2 7 14 9 10 6 3h6l4-1 1-8-2-4-8-5-6-9z" fill="#FCFCFC"/>
<path transform="translate(406,1209)" d="m0 0h20l8 2 20 12 19 10 19 8 3 5-1 5-6 5-9 3h-13l-5-3h-7l-4 4v6l4 5 10 4 4 1h9l16-5h6l2 5-1 4-9 6-7 7-6 12-3 9v6l5 5h6l3-1 3-12 5-9 7-7 5-2 9 1 8 5 4 4 1 3v9l-5 12-8 14-8 10-9 9-12 7-11 3h-10l-17-5-20-10-13-9-8-9-3-9-5-29-4-15-10-23-7-15-1-5v-15l4-8 8-6 7-3z" fill="#FCFCFC"/>
<path transform="translate(467,1391)" d="m0 0h11l6 5 9 17 10 14 11 12 14 11 5 5 1 4-3 14-6 15-8 12-11 11-14 8-10 4-13 3h-9l-15-4-13-2h-36v-2l10-3 21-2 7-3 1-1v-8l-4-4-16 1-19 3-9 1-1-4 16-16 7-11v-9l-4-3-7 1-8 11-13 13-5 4-4-2-1-5 6-18 11-21 9-12 11-12 9-8 11-7 16-7 11-3z" fill="#FCFCFC"/>
<path transform="translate(1412,354)" d="m0 0 33 2 104 8 22 2 3 1-1 24-4 45-1 6-6 1-25-1-86-9-38-4-9-2 1-13 6-58z" fill="#FCFCFC"/>
<path transform="translate(304,1242)" d="m0 0h19l5 5-1 7-8 15-8 10-14 14-11 7-18 3-12 4-12 6-7 3h-12l-13-5-15-9-14-10-4-5 1-5 7-11 9-10 10-8 16-8 3-1h54z" fill="#FCFCFC"/>
<path transform="translate(1172,330)" d="m0 0 64 5 72 6 19 2 1 1v33l-2 38-1 6-9-5-13-8-16-8-17-7-26-7-18-3-23-2 1-20 1-14-1-2-4-1-13-1h-11l-2 7-2 31h-4v-12l3-38z" fill="#FCFCFC"/>
<path transform="translate(681,1465)" d="m0 0 10 1 20 8 20 10 20 12 9 7 6 10 5 18 4 26v13l-4 7-6 3-11-1-20-5-21-9-17-8-5-6v-26l-2-16-5-23-4-14v-6z" fill="#FCFCFC"/>
<path transform="translate(1170,393)" d="m0 0h47l25 4 25 7 22 9 18 10 16 12 10 9 13 13 10 14 10 16 8 16 8 18 6 19 5 21 3 19v41l-4 24-6 22-9 22-10 18-12 17-12 13-6 7-11 9-10 8-16 10-15 8-21 8-23 6-20 3-23 1-19-1-25-4-25-7-24-10-20-11-19-13-12-11-8-7-11-12-13-17-10-15-11-21-8-22-6-24-3-21v-38l4-25 6-20 7-17 9-17 10-14 9-10 7-8 12-11 15-11 13-8 17-9 21-8 20-6 21-4zm0 6-13 1-26 6-20 6-21 9-15 8-15 10-11 9-10 9-10 10-13 18-9 16-7 15-6 18-5 24-1 9v35l3 21 5 21 7 20 10 21 7 11 10 14 12 14 11 12 8 7 17 13 18 11 16 8 20 8 22 6 25 4 18 1 22-1 20-3 23-6 20-8 17-9 15-10 11-9 10-9 7-7 9-11 10-14 9-16 7-16 8-24 4-21 2-18v-21l-4-30-6-24-9-24-8-17-9-15-10-14-11-13-9-9-17-13-15-9-15-8-19-7-15-4-22-4-8-1z" fill="#FCFCFC"/>
<path transform="translate(1049,306)" d="m0 0h18l12 5 8 7 6 7 5 11 1 6v10l-2 11-5 10-5 7-10 7-8 3h-15l-13-5-11-6-7-8-4-11v-12l3-12 8-16 7-8z" fill="#211E20"/>
<path transform="translate(783,1445)" d="m0 0h7l10 4 13 10 13 13 9 14 5 13 4 22 1 9h-14l-13-4-11-8-13-11-19-14-15-10-19-12-2-4 8-5 21-10 11-6z" fill="#FCFCFC"/>
<path transform="translate(553,1516)" d="m0 0 4 1 11 11 18 13 18 10 10 5 3 5v7l-3 12-6 11-11 12-9 10-8 10-3 3-5-1-8-6-8-11-4-10v-27z" fill="#FCFCFC"/>
<path transform="translate(901,583)" d="m0 0h11l16 2 1 1v26l-3 45-1 22-2 7-7 7-6 10-5 12-2 10-1 8h-2l-12-24-1-6 1-23 5-45 7-50z" fill="#FCFCFC"/>
<path transform="translate(787,176)" d="m0 0 7 1 37 12 28 7 18 3 21 2 36 1v29l-6 4h-4l-4-9-5-4-9-2-15-2-48-3-52-5-12 3-5-1v-27l2-5z" fill="#FCFCFC"/>
<path transform="translate(637,385)" d="m0 0h14l-3 5-11 12-10 14-7 11-10 18-3 5-41 14-18 6 2-5 10-16 14-20 12-16 9-11 13-10 13-5z" fill="#FCFCFC"/>
<path transform="translate(265,1120)" d="m0 0h26l17 3 10 6 10 9 12 12 9 11 1 3-5 3-18 4h-11l-29-6-9-6-5-4-9-11-11-18 1-4 2-1z" fill="#FCFCFC"/>
<path transform="translate(648,1457)" d="m0 0h7l4 4 7 20 6 21 3 20v15l-2 4-7-1-20-12-13-10-5-10-6-20-2-8 1-7 6-5 12-5z" fill="#FCFCFC"/>
<path transform="translate(672,1412)" d="m0 0h12l30 5 21 5 20 6 8 4v4l-19 10-11 5-15 4h-11l-39-13-3-3-2-6 2-13 4-6z" fill="#FCFCFC"/>
<path transform="translate(241,1189)" d="m0 0h11l6 3 8 9 5 10 3 9-1 7-2 1h-25l-47-4-38-5-3-2 39-13 15-6 25-8z" fill="#FCFCFC"/>
<path transform="translate(282,1183)" d="m0 0h11l16 3 17 5 19 9 14 9 7 6-4 17-4 2-16-5-16-3-32-1-4-5-3-11-5-12-4-8 2-4z" fill="#FCFCFC"/>
<path transform="translate(673,380)" d="m0 0h9l1 3-1 14v11h7l2-12 2-15 5-1 7 1 1 3v21l1 3 7 1 2-23 1-2 8 1 12 4v26l1 1h5l3-13 1-7 4-1 15 8 2 2-1 18-1 1-26-1-31-2h-43l-1-4 7-36z" fill="#FCFCFC"/>
<path transform="translate(552,1465)" d="m0 0 10 1 14 3 19 3 6 5 5 12 7 24 3 15v10l-10-4-14-8-13-10-17-17-7-11-2-4z" fill="#FCFCFC"/>
<path transform="translate(789,1526)" d="m0 0 5 2 14 12 17 16 13 13 7 8 8 10-1 7-3 3-5 1-26-5-18-4-6-4-3-5-1-26-2-19v-8z" fill="#FCFCFC"/>
<path transform="translate(663,1365)" d="m0 0h14l24 4 40 9 7 2-1 10-3 17-7-1-27-6-35-6-9-6-4-6-3-9 1-4z" fill="#FCFCFC"/>
<path transform="translate(375,1310)" d="m0 0h8l5 5 5 24 5 10 8 9 13 9 13 8 3 4-3 3-12 5-15 9-6 4-3-4-5-19-6-15-8-14-9-12-10-10-1-2v-7l9-4z" fill="#FCFCFC"/>
<path transform="translate(347,1251)" d="m0 0h8l13 9 7 11 5 12-1 6-4 4-25 8-19 5h-7l-8-3-2-3 9-10 11-15 11-22z" fill="#FCFCFC"/>
<path transform="translate(384,1090)" d="m0 0 4 2 14 9 10 8 5 8 6 22 7 21 8 18 9 16 4 5v2l-4-1-13-11-13-13-8-11-10-16-9-20-6-19-4-17z" fill="#FCFCFC"/>
<path transform="translate(532,1579)" d="m0 0h3v19l-2 52-2 28-2 5-1 1h-5l-8-9-7-14-1-10 7-23 3-19v-11l-1-11z" fill="#FCFCFC"/>
<path transform="translate(937,705)" d="m0 0 23 1 6 7 3 10v10l-5 8-6 5-12 4-9-1-10-5-4-6-1-4v-11l4-8 8-9z" fill="#FCFCFC"/>
<path transform="translate(534,1503)" d="m0 0h2v47l-3 8-7 6-11 5-4-1-8-11-12-16 2-4 19-10 12-10 9-12z" fill="#FCFCFC"/>
<path transform="translate(650,1552)" d="m0 0 6 1 27 15 16 8 11 6 2 4-4 4-9 3-6 4-5 4-5 1-7-3-12-11-8-7-5-7-2-10v-11z" fill="#FCFCFC"/>
<path transform="translate(125,1231)" d="m0 0 14 1 49 7 4 1-1 4-12 11-9 12-4 5-5 1-8-6-13-12-17-17v-5z" fill="#FCFCFC"/>
<path transform="translate(351,1122)" d="m0 0 6 1 15 8 7 6 8 16 10 17 15 21-1 1-16 1-5-5-8-11-10-14-12-14-6-8-4-10v-8z" fill="#FCFCFC"/>
<path transform="translate(1055,325)" d="m0 0 9 1 6 3 6 7 3 9-2 11-4 6-6 5-3 1h-7l-10-4-6-5-2-5v-8l4-11 7-8z" fill="#FCFCFC"/>
<path transform="translate(656,1605)" d="m0 0 4 2 10 8 7 6 1 2 2 13 3 10 6 10 8 10v8l-2 4-11 1-5-5-6-13-8-20-6-19-3-13z" fill="#FCFCFC"/>
<path transform="translate(624,842)" d="m0 0 5 2 2 2 1 23 1 4h6l1-1 1-16h3l9 8-3 37h-11l-10-4-4-5-1-2z" fill="#FCFCFC"/>
<path transform="translate(771,182)" d="m0 0 3 1-1 29-9-1-29-6-23-4v-2l22-5 29-9z" fill="#FCFCFC"/>
<path transform="translate(1157,1565)" d="m0 0h1l1 236 1 137 1 66v44h-3l-1-243-1-90v-102z" fill="#211E20"/>
<path transform="translate(242,1077)" d="m0 0 9 3 18 11 12 8 2 4-8 1h-26l-7-5-5-11v-8z" fill="#FCFCFC"/>
<path transform="translate(937,245)" d="m0 0 20 1 56 6 8 1 2 4-1 1h-11l-73-5-1-1z" fill="#FCFCFC"/>
<path transform="translate(939,711)" d="m0 0h7l6 3 3 4v13l-4 5-5 2-8-1-5-4-2-5v-9l4-6z" fill="#211E20"/>
<path transform="translate(883,920)" d="m0 0h30l1 1v9l-2 8h-8l-23-3-2-1 1-7z" fill="#FCFCFC"/>
<path transform="translate(275,1075)" d="m0 0 7 1 17 7 15 9 11 10 5 7 2 9-5-3-13-11-18-14-21-14z" fill="#FCFCFC"/>
<path transform="translate(551,1629)" d="m0 0 7 6 8 6-2 5-14 23h-1v-22l1-17z" fill="#FCFCFC"/>
<path transform="translate(852,914)" d="m0 0 11 2 9 2-2 13-1 2-21-2 2-10z" fill="#FCFCFC"/>
<path transform="translate(662,877)" d="m0 0 5 5 12 19v3l-20-2v-9z" fill="#FCFCFC"/>
<path transform="translate(648,411)" d="m0 0h2l-2 17-1 10-7 3-10 2 2-6 12-20z" fill="#FCFCFC"/>
<path transform="translate(849,227)" d="m0 0 11 1 1 3-1 16h-12l-1-1 1-17z" fill="#FCFCFC"/>
<path transform="translate(778,411)" d="m0 0 10 5 15 10v1h-12l-14-2-1-4z" fill="#FCFCFC"/>
<path transform="translate(873,228)" d="m0 0 8 1 1 1v19h-8l-2-1v-19z" fill="#FCFCFC"/>
<path transform="translate(356,1182)" d="m0 0h9l5 5 8 12v2l-4-1-15-10-9-5v-2z" fill="#FCFCFC"/>
<path transform="translate(827,226)" d="m0 0h8l1 1v12l-1 4-4-1-4-3z" fill="#FCFCFC"/>
<path transform="translate(213,941)" d="m0 0 16 1 5 3 3 6-1 4-21-12z" fill="#FCFCFC"/>
<path transform="translate(895,231)" d="m0 0h3v18h-3l-1-3z" fill="#FCFCFC"/>
<path transform="translate(911,236)" d="m0 0 2 1 1 5v8h-4v-12z" fill="#FCFCFC"/>
<path transform="translate(802,223)" d="m0 0 12 1 1 5h-4l-9-5z" fill="#FCFCFC"/>
</svg>
